<?xml version="1.0" encoding="utf-8"?>
<!-- Generator: Adobe Illustrator 22.0.1, SVG Export Plug-In . SVG Version: 6.00 Build 0)  -->
<svg version="1.1" id="Layer_1" xmlns="http://www.w3.org/2000/svg" xmlns:xlink="http://www.w3.org/1999/xlink" x="0px" y="0px"
	 viewBox="0 0 543.3 105.1" style="enable-background:new 0 0 543.3 105.1;" xml:space="preserve">
<style type="text/css">
	.st0{fill:#FFFFFF;}
	.st1{fill:#93727B;}
	.st2{fill:#CECDCD;}
	.st3{fill:#341119;}
</style>
<path class="st0" d="M289.2,56.1c0-8-2.1-14.2-6.4-18.8c-0.1-0.2-0.3-0.3-0.4-0.5c-4.5-4.6-10.9-6.9-19-6.9c-7.8,0-14.1,2.5-19,7.6
	c-4.9,5-7.4,11.5-7.4,19.3c0,8.1,2.4,14.6,7.2,19.5c0.3,0.3,0.5,0.5,0.8,0.8c4.7,4.4,10.9,6.6,18.6,6.6c5.6,0,10.6-1.2,14.8-3.7
	c4.1-2.4,7.5-6,10.4-10.9c0.1-0.1,0.1-0.2,0.2-0.3l-9.8-5.4c-1.9,3.5-4,6-6.5,7.5c-2.5,1.6-5.6,2.3-9.4,2.3c-3.8,0-7-1.1-9.4-3.3
	c-0.2-0.2-0.5-0.4-0.7-0.7c-2.5-2.6-3.9-6.3-4.2-11h40.4V56.1 M254.4,42.4c2.3-1.8,5.4-2.7,9.2-2.7c4,0,7.2,0.9,9.5,2.8
	c0.5,0.4,0.9,0.8,1.3,1.3c1.5,1.8,2.5,4.1,2.9,6.9h-27.8C250.5,47,252.1,44.2,254.4,42.4"/>
<polyline class="st1" points="273.4,15 273.3,15 273.3,15.8 273.4,15.8 "/>
<polygon class="st2" points="5.4,13.7 5.4,24.4 1.4,24.4 1.4,13.7 0,13.7 0,10.3 1.4,10.3 1.4,5.5 5.4,5.5 5.4,10.3 7.9,10.3 
	7.9,13.7 "/>
<path class="st2" d="M9.4,0h4v11.5h0.1c0.4-0.6,0.9-1,1.6-1.2c0.6-0.3,1.3-0.4,2.1-0.4c1.8,0,3.1,0.5,3.8,1.6
	c0.7,1.1,1.1,2.5,1.1,4.4v8.6h-4V17c0-1.3-0.1-2.3-0.4-2.9c-0.3-0.7-0.9-1-1.8-1c-0.7,0-1.3,0.2-1.6,0.7c-0.4,0.5-0.6,1-0.7,1.6
	c-0.1,0.6-0.1,1.3-0.1,2.1v7h-4V0"/>
<path class="st2" d="M38,18h-9.3c0,1,0.2,1.9,0.7,2.7c0.4,0.7,1.2,1.1,2.1,1.1c1.2,0,2.1-0.6,2.7-1.9l3.7,0.6
	c-0.5,1.4-1.3,2.5-2.4,3.2c-1.1,0.8-2.5,1.2-4,1.2c-1.1,0-2-0.2-2.9-0.5c-0.9-0.4-1.6-0.9-2.2-1.5c-0.6-0.7-1.1-1.4-1.4-2.3
	c-0.3-0.9-0.5-1.9-0.5-3c0-1.4,0.3-2.7,0.8-3.9c0.5-1.2,1.3-2.1,2.3-2.7c1-0.7,2.3-1,3.8-1c2.2,0,3.9,0.7,5,2.1
	c1.1,1.4,1.7,3.3,1.7,5.5V18 M28.8,15.5h5.4c-0.1-0.8-0.4-1.4-0.9-2c-0.5-0.6-1.1-0.8-1.8-0.8c-0.8,0-1.4,0.3-1.8,0.8
	C29.2,14,28.9,14.7,28.8,15.5"/>
<path class="st1" d="M12.5,76.4c0.7,0.8,1.4,1.6,2.1,2.2c-0.7-0.8-1.4-1.6-2.1-2.5V76.4"/>
<path class="st0" d="M44.8,37.3c-0.2-0.3-0.5-0.6-0.7-0.8C40,32.1,34.8,30,28.5,30c-4.1,0-7.6,0.9-10.6,2.6
	c-2.3,1.4-4.1,3.2-5.5,5.4c-0.4,0.6-0.7,1.3-1,2v-8.3H0v73.4h11.5V75c0.3,0.5,0.7,0.9,1,1.3V76c0.7,0.9,1.3,1.8,2.1,2.5
	c1.3,1.2,2.7,2.2,4.1,2.9c2.7,1.4,5.9,2.1,9.4,2.1c7.1,0,12.7-2.4,16.8-7.2c4.1-4.8,6.1-11.4,6.1-19.8C51.1,48.6,49,42.2,44.8,37.3
	 M15,68.8c-2.6-3.1-3.9-7.2-3.9-12.3c0-5.1,1.2-9.1,3.7-12c2.4-2.9,5.8-4.3,10.2-4.3c4.2,0,7.6,1.4,10,4.2c0.1,0.1,0.2,0.2,0.2,0.3
	c2.5,2.9,3.7,7,3.7,12.3c0,5.3-1.2,9.3-3.6,12.2c-2.4,2.9-5.8,4.3-10.1,4.3c-3.6,0-6.6-1.1-9-3.3C15.9,69.7,15.4,69.3,15,68.8"/>
<path class="st0" d="M397.5,41.7c-0.4-1.8-1-3.4-1.9-4.8c-0.4-0.6-0.8-1.1-1.2-1.6c-1.3-1.6-3-2.8-5-3.7c-2.6-1.2-5.8-1.8-9.6-1.8
	c-4.5,0-8.3,0.8-11.4,2.4c-2.7,1.4-5.1,3.4-7.1,6.1c-0.3,0.4-0.7,0.9-1,1.4V0h-10.8v81.6H361V58.8c0-4.1,0.2-7.1,0.5-9
	c0.3-1.9,0.9-3.4,1.8-4.6c1.2-1.8,2.9-3.2,5-4.2c2.1-1,4.5-1.5,7.2-1.5c4,0,6.8,1,8.4,3.1c0,0.1,0.1,0.1,0.1,0.2
	c1.6,2.2,2.4,6.5,2.4,13.1v25.6h11.7V51.3C398.1,46.8,397.9,43.6,397.5,41.7"/>
<path class="st0" d="M331.5,30.7c-2.2-0.5-4.6-0.7-7.2-0.7c-8.3,0-15.1,2.5-20.2,7.4c-5.2,4.9-7.7,11.4-7.7,19.4
	c0,7.9,2.5,14.4,7.5,19.4c0.2,0.2,0.4,0.3,0.5,0.5c4.9,4.6,11.2,7,18.8,7c2.7,0,5.3-0.3,7.7-0.9c2.4-0.6,4.7-1.5,6.8-2.7V66.9
	c-1.7,2.1-3.6,3.7-5.8,4.7c-2.2,1-4.7,1.6-7.5,1.6c-4.7,0-8.4-1.3-11.2-3.8c-0.2-0.2-0.5-0.4-0.7-0.6c-2.9-3-4.3-7-4.3-12.2
	c0-5,1.4-9,4.3-12c2.8-3,6.6-4.5,11.3-4.5c2.7,0,5.3,0.5,7.6,1.5c2.4,1,4.4,2.5,6.2,4.4V33C335.8,32,333.7,31.2,331.5,30.7"/>
<rect x="124.5" class="st0" width="11.5" height="81.6"/>
<path class="st0" d="M185.1,31.7l-12.4,26.6l-0.3,0.6c-1.3,2.8-2.2,5-2.8,6.7c-0.2,0.6-0.4,1.2-0.5,1.7c-0.2-1.7-0.6-3.3-1-5
	c-0.4-1.6-0.9-3.2-1.4-4.8l-8.9-24.8l-0.4-1h-12.7l18.5,45.6l-13.8,27.8h11.8l35.8-72.4l0.5-1H185.1"/>
<path class="st0" d="M461.4,41.7c-0.4-1.8-1-3.4-1.9-4.8c-0.4-0.6-0.8-1.1-1.2-1.6c-1.3-1.6-3-2.8-5-3.7c-2.6-1.2-5.8-1.8-9.6-1.8
	c-4.5,0-8.3,0.8-11.4,2.4c-2.7,1.4-5.1,3.4-7.1,6.1c-0.3,0.4-0.7,0.9-1,1.4v-8.2h-10.8v49.9h11.5V58.8c0-4.1,0.2-7.1,0.5-9
	c0.3-1.9,0.9-3.4,1.8-4.6c1.2-1.8,2.9-3.2,5-4.2c2.1-1,4.5-1.5,7.2-1.5c4,0,6.8,1,8.4,3.1c0,0.1,0.1,0.1,0.1,0.2
	c1.6,2.2,2.4,6.5,2.4,13.1v25.6H462V51.3C462,46.8,461.8,43.6,461.4,41.7"/>
<path class="st0" d="M111.8,46.5c-1.2-2.9-3-5.5-5.2-7.8c-0.3-0.3-0.6-0.6-0.9-0.9c-2.7-2.6-5.7-4.6-9-5.9c-3.3-1.3-6.9-2-10.7-2
	c-3.7,0-7.2,0.7-10.6,2c-3.4,1.3-6.3,3.2-8.9,5.7c-2.6,2.5-4.6,5.4-6,8.7c-1.4,3.2-2.1,6.7-2.1,10.3c0,3.7,0.7,7.1,2.1,10.3
	c1.4,3.2,3.4,6.1,6.1,8.7c0.1,0.1,0.2,0.2,0.3,0.2c2.6,2.4,5.5,4.3,8.7,5.6c3.4,1.3,6.9,2,10.5,2c3.7,0,7.3-0.7,10.6-2
	c3.4-1.3,6.4-3.3,9.2-6c2.6-2.5,4.6-5.3,6-8.6c1.4-3.2,2-6.7,2-10.4C113.9,53.2,113.2,49.8,111.8,46.5 M75.2,68.6
	c-3-3.2-4.5-7.1-4.5-11.8c0-4.6,1.5-8.6,4.5-11.8c3-3.2,6.7-4.8,11-4.8c4.3,0,8,1.6,11,4.8c0,0,0.1,0.1,0.1,0.1
	c2.9,3.2,4.4,7.1,4.4,11.6c0,4.6-1.5,8.6-4.5,11.8c-3,3.2-6.7,4.8-11,4.8c-3.9,0-7.3-1.3-10.1-4C75.8,69.1,75.5,68.9,75.2,68.6"/>
<path class="st0" d="M537.1,30.7c-2.2-0.5-4.6-0.7-7.2-0.7c-8.3,0-15.1,2.5-20.2,7.4c-5.2,4.9-7.7,11.4-7.7,19.4
	c0,7.9,2.5,14.4,7.5,19.4c0.2,0.2,0.4,0.3,0.5,0.5c4.9,4.6,11.2,7,18.8,7c2.7,0,5.3-0.3,7.7-0.9c2.4-0.6,4.7-1.5,6.8-2.7V66.9
	c-1.7,2.1-3.6,3.7-5.8,4.7c-2.2,1-4.7,1.6-7.5,1.6c-4.7,0-8.4-1.3-11.2-3.8c-0.2-0.2-0.5-0.4-0.7-0.6c-2.9-3-4.3-7-4.3-12.2
	c0-5,1.4-9,4.3-12c2.8-3,6.6-4.5,11.3-4.5c2.7,0,5.3,0.5,7.6,1.5c2.4,1,4.4,2.5,6.2,4.4V33C541.4,32,539.3,31.2,537.1,30.7"/>
<path class="st0" d="M488,12.4c-0.2-0.2-0.3-0.4-0.5-0.5c-1.4-1.3-3-2-5.1-2c-2,0-3.7,0.7-5.1,2.1c-1.4,1.4-2.1,3.1-2.1,5
	c0,2,0.7,3.6,2.1,5c0.2,0.2,0.3,0.3,0.5,0.4c1.3,1.1,2.9,1.7,4.6,1.7c2,0,3.7-0.7,5.1-2.1c1.4-1.4,2.1-3.1,2.1-5.1
	C489.5,15.2,489,13.7,488,12.4"/>
<rect x="476.7" y="31.7" class="st0" width="11.5" height="49.9"/>
<polygon class="st0" points="223.2,0 211.5,12.7 211.5,31.7 202.7,31.7 202.7,32.7 202.7,34.5 202.7,41.7 211.5,41.7 211.5,42.7 
	211.5,81.6 212.5,81.6 223,81.6 223,41.7 231.8,41.7 231.8,31.7 223.2,31.7 "/>
<path class="st3" d="M-29.7,66c0.8-0.7,1.6-1.4,2.2-2.1c-0.8,0.7-1.6,1.4-2.5,2.1H-29.7"/>
</svg>
